<svg width="40" height="40" viewBox="0 0 250 250" fill="none" xmlns="http://www.w3.org/2000/svg">
<path d="M250 80.0781C250 70.3711 242.129 62.5 232.422 62.5H199.219C190.59 62.5 183.594 55.5039 183.594 46.875C183.594 38.2461 190.59 31.25 199.219 31.25H203.125C211.754 31.25 218.75 24.2539 218.75 15.625C218.75 6.99609 211.754 0 203.125 0H58.5938C49.9648 0 42.9688 6.99609 42.9688 15.625C42.9688 24.2539 49.9648 31.25 58.5938 31.25H66.4062C72.8789 31.25 78.125 36.4961 78.125 42.9688C78.125 49.4414 72.8789 54.6875 66.4062 54.6875H29.2969C21.7461 54.6875 15.625 60.8086 15.625 68.3594C15.625 75.9102 21.7461 82.0312 29.2969 82.0312H35.1562C41.6289 82.0312 46.875 87.2773 46.875 93.75C46.875 100.223 41.6289 105.469 35.1562 105.469H19.5312C8.74609 105.469 0 114.215 0 125C0 135.785 8.74609 144.531 19.5312 144.531H29.2969C36.8477 144.531 42.9688 150.652 42.9688 158.203C42.9688 165.754 36.8477 171.875 29.2969 171.875H23.4375C14.8086 171.875 7.8125 178.871 7.8125 187.5C7.8125 196.129 14.8086 203.125 23.4375 203.125H37.1094C42.5039 203.125 46.875 207.496 46.875 212.891C46.875 218.285 42.5039 222.656 37.1094 222.656C29.5586 222.656 23.4375 228.777 23.4375 236.328C23.4375 243.879 29.5586 250 37.1094 250H197.266C204.816 250 210.938 243.879 210.938 236.328C210.938 228.777 204.816 222.656 197.266 222.656H195.312C190.996 222.656 187.5 219.16 187.5 214.844C187.5 210.527 190.996 207.031 195.312 207.031H218.75C227.379 207.031 234.375 200.035 234.375 191.406C234.375 182.777 227.379 175.781 218.75 175.781H216.797C211.402 175.781 207.031 171.41 207.031 166.016C207.031 160.621 211.402 156.25 216.797 156.25H234.375C243.004 156.25 250 149.254 250 140.625C250 131.996 243.004 125 234.375 125H224.609C217.059 125 210.938 118.879 210.938 111.328C210.938 103.777 217.059 97.6562 224.609 97.6562H232.422C242.129 97.6562 250 89.7852 250 80.0781ZM0 15.625C0 6.99609 6.99609 0 15.625 0C24.2539 0 31.25 6.99609 31.25 15.625C31.25 24.2539 24.2539 31.25 15.625 31.25C6.99609 31.25 0 24.2539 0 15.625ZM222.656 236.328C222.656 228.777 228.777 222.656 236.328 222.656C243.879 222.656 250 228.777 250 236.328C250 243.879 243.879 250 236.328 250C228.777 250 222.656 243.879 222.656 236.328Z" fill="url(#paint0_radial)"/>
<path d="M199.219 152.93C199.219 193.711 166.105 226.562 125 226.562C83.8945 226.562 50.7812 193.711 50.7812 152.93C50.7812 121.094 80.5352 72.6796 102.363 36.2186C112.566 19.1796 137.434 19.1796 147.637 36.2186C169.465 72.6796 199.219 121.094 199.219 152.93Z" fill="url(#paint1_linear)"/>
<path d="M125 207.031C103.48 207.031 83.8281 194.512 74.9336 175.133C73.1328 171.211 74.8516 166.574 78.7734 164.773C82.6797 162.969 87.3242 164.691 89.1289 168.613C95.4844 182.461 109.566 191.406 125 191.406C129.312 191.406 132.812 194.906 132.812 199.219C132.812 203.531 129.312 207.031 125 207.031ZM74.2188 140.625C69.9023 140.625 66.4062 144.121 66.4062 148.438C66.4062 152.754 69.9023 156.25 74.2188 156.25C78.5352 156.25 82.0312 152.754 82.0312 148.438C82.0312 144.121 78.5352 140.625 74.2188 140.625Z" fill="#D4F0F9"/>
<path d="M132.813 33.2031C132.813 38.5937 128.438 42.9687 123.047 42.9687H111.328C108.633 42.9687 106.172 44.0625 104.414 45.8203C102.656 47.5781 101.563 50.0391 101.563 52.7344C101.563 55.4297 102.656 57.8906 104.414 59.6484C106.172 61.4063 108.633 62.5 111.328 62.5C114.023 62.5 116.484 63.5937 118.242 65.3516C120 67.1094 121.094 69.5703 121.094 72.2656C121.094 77.6562 116.719 82.0312 111.328 82.0312H75.7812C84.375 66.0547 93.9844 50.2734 102.383 36.2109C107.266 28.0859 115.469 23.8281 123.789 23.4766H124.063C126.328 23.7109 128.438 24.7656 129.961 26.2891C131.719 28.0469 132.813 30.5078 132.813 33.2031Z" fill="url(#paint2_linear)"/>
<path d="M152.344 72.2656C152.344 74.9609 151.25 77.4219 149.492 79.1797C147.734 80.9375 145.273 82.0312 142.578 82.0312C137.188 82.0312 132.812 77.6562 132.812 72.2656C132.812 69.5703 133.906 67.1094 135.664 65.3516C137.422 63.5937 139.883 62.5 142.578 62.5C145.273 62.5 147.734 63.5937 149.492 65.3516C151.25 67.1094 152.344 69.5703 152.344 72.2656Z" fill="url(#paint3_linear)"/>
<path d="M140.625 138.672C140.625 144.063 136.25 148.438 130.859 148.438C128.164 148.438 125.703 147.344 123.945 145.586C122.187 143.828 121.094 141.367 121.094 138.672C121.094 135.977 122.187 133.516 123.945 131.758C125.703 130 128.164 128.906 130.859 128.906C133.555 128.906 136.016 130 137.773 131.758C139.531 133.516 140.625 135.977 140.625 138.672ZM195 128.906H162.109C156.719 128.906 152.344 133.281 152.344 138.672C152.344 141.367 153.437 143.828 155.195 145.586C156.953 147.344 159.414 148.438 162.109 148.438H166.016C171.406 148.438 175.781 152.813 175.781 158.203C175.781 160.898 174.688 163.359 172.93 165.117C171.172 166.875 168.711 167.969 166.016 167.969H150.391C145 167.969 140.625 172.344 140.625 177.734C140.625 180.43 141.719 182.891 143.477 184.648C145.234 186.406 147.695 187.5 150.391 187.5C153.086 187.5 155.547 188.594 157.305 190.352C159.063 192.109 160.156 194.57 160.156 197.266C160.156 199.961 159.063 202.422 157.305 204.18C155.547 205.938 153.086 207.031 150.391 207.031H142.578C137.188 207.031 132.812 211.406 132.812 216.797C132.812 219.492 133.906 221.953 135.664 223.711C136.328 224.375 137.148 224.961 138.008 225.43C172.852 219.375 199.219 189.297 199.219 152.93C199.219 145.664 197.656 137.578 195 128.906Z" fill="url(#paint4_linear)"/>
<defs>
<radialGradient id="paint0_radial" cx="0" cy="0" r="1" gradientUnits="userSpaceOnUse" gradientTransform="translate(125 125) scale(125)">
<stop stop-color="#F4E9C3"/>
<stop offset="0.219" stop-color="#F8EECD"/>
<stop offset="0.644" stop-color="#FDF4DC"/>
<stop offset="1" stop-color="#FFF6E1"/>
</radialGradient>
<linearGradient id="paint1_linear" x1="125" y1="23.4374" x2="125" y2="226.562" gradientUnits="userSpaceOnUse">
<stop stop-color="#83E7F7"/>
<stop offset="0.351" stop-color="#7EE1F4"/>
<stop offset="0.841" stop-color="#71CEEC"/>
<stop offset="1" stop-color="#6CC7E9"/>
</linearGradient>
<linearGradient id="paint2_linear" x1="104.297" y1="82.0312" x2="104.297" y2="23.4766" gradientUnits="userSpaceOnUse">
<stop stop-color="#93E6F6"/>
<stop offset="1" stop-color="#95EBF8"/>
</linearGradient>
<linearGradient id="paint3_linear" x1="142.578" y1="82.0312" x2="142.578" y2="62.5" gradientUnits="userSpaceOnUse">
<stop stop-color="#93E6F6"/>
<stop offset="1" stop-color="#95EBF8"/>
</linearGradient>
<linearGradient id="paint4_linear" x1="160.156" y1="132.938" x2="160.156" y2="217.184" gradientUnits="userSpaceOnUse">
<stop stop-color="#59D5F0"/>
<stop offset="0.414" stop-color="#54CEED"/>
<stop offset="0.998" stop-color="#47BCE5"/>
<stop offset="1" stop-color="#47BCE5"/>
</linearGradient>
</defs>
</svg>
