<svg fill="#ffffff" xmlns="http://www.w3.org/2000/svg"  viewBox="0 0 48 48" width="12px" height="12px"><path d="M27.5,7h-7C19.671,7,19,6.329,19,5.5v-2C19,2.671,19.671,2,20.5,2h7C28.329,2,29,2.671,29,3.5v2C29,6.329,28.329,7,27.5,7z"/><path d="M33,32.051V32h0H20.5c-0.829,0-1.5-0.671-1.5-1.5s0.671-1.5,1.5-1.5H33v-6H20.5c-0.829,0-1.5-0.671-1.5-1.5	s0.671-1.5,1.5-1.5H33c1.14-0.232,2-1.293,2-2.5v-0.134c0-6.057-4.739-11.254-10.795-11.364C18.036,5.889,13,10.861,13,17.004	c0,0.094,0,0.123,0,0.118V17.5c0,1.207,0.86,2.268,2,2.5l-0.007,12.052C13.857,32.288,13,33.295,13,34.5v6	c0,3.038,2.462,5.5,5.5,5.5h11c3.038,0,5.5-2.462,5.5-5.5v-6C35,33.293,34.14,32.283,33,32.051z"/></svg>