<svg width="50" height="50" viewBox="0 0 80 80" fill="none" xmlns="http://www.w3.org/2000/svg">
<path d="M7 77V26.572L39.996 7.16003L73 26.572V77H7Z" fill="#DFF0FE"/>
<path d="M39.996 8.32L72 27.144V76H8V27.144L39.996 8.32ZM39.996 6L6 26V78H74V26L39.996 6Z" fill="#4788C7"/>
<path d="M39.996 9.29L3 31.91V25.792L39.996 3.172L77 25.792V31.91L39.996 9.29Z" fill="#B6DCFE"/>
<path d="M39.996 4.344L76 26.352V30.126L41.038 8.756L39.994 8.118L38.95 8.756L4 30.126V26.352L39.996 4.344ZM39.996 2L2 25.23V33.692L39.996 10.462L78 33.692V25.23L39.996 2Z" fill="#4788C7"/>
<path d="M29 43H51V77H29V43Z" fill="#B6DCFE"/>
<path d="M50 44V76H30V44H50ZM52 42H28V78H52V42Z" fill="#4788C7"/>
<path d="M46 60C45.4696 60 44.9609 60.2107 44.5858 60.5858C44.2107 60.9609 44 61.4696 44 62C44 62.5304 44.2107 63.0391 44.5858 63.4142C44.9609 63.7893 45.4696 64 46 64C46.5304 64 47.0391 63.7893 47.4142 63.4142C47.7893 63.0391 48 62.5304 48 62C48 61.4696 47.7893 60.9609 47.4142 60.5858C47.0391 60.2107 46.5304 60 46 60Z" fill="#4788C7"/>
</svg>
