<svg xmlns="http://www.w3.org/2000/svg"  viewBox="0 0 128 128" width="64px" height="64px"><path fill="#fff" d="M64 9A55 55 0 1 0 64 119A55 55 0 1 0 64 9Z"/><path fill="#444b54" d="M64,122C32,122,6,96,6,64S32,6,64,6s58,26,58,58S96,122,64,122z M64,12c-28.7,0-52,23.3-52,52s23.3,52,52,52s52-23.3,52-52S92.7,12,64,12z"/><path fill="#444b54" d="M49 82c-.8 0-1.5-.3-2.1-.9-1.2-1.2-1.2-3.1 0-4.2l40-40c1.2-1.2 3.1-1.2 4.2 0 1.2 1.2 1.2 3.1 0 4.2l-40 40C50.5 81.7 49.8 82 49 82zM45 57c-6.6 0-12-5.4-12-12s5.4-12 12-12 12 5.4 12 12S51.6 57 45 57zM45 39c-3.3 0-6 2.7-6 6s2.7 6 6 6 6-2.7 6-6S48.3 39 45 39zM82 95c-6.6 0-12-5.4-12-12s5.4-12 12-12 12 5.4 12 12S88.6 95 82 95zM82 77c-3.3 0-6 2.7-6 6s2.7 6 6 6 6-2.7 6-6S85.3 77 82 77zM39 86A3 3 0 1 0 39 92 3 3 0 1 0 39 86z"/></svg>