<svg width="60" height="60" viewBox="0 0 60 60" fill="none" xmlns="http://www.w3.org/2000/svg">
<path d="M26.514 57.75L24.8265 50.9985L24.4005 50.8845C20.7135 49.8975 17.3565 47.9655 14.691 45.2985L14.379 44.9865L7.7115 46.893L4.2255 40.8555L9.228 36.018L9.114 35.592C8.6115 33.7125 8.3565 31.83 8.3565 30C8.3565 28.17 8.6115 26.2875 9.1125 24.4065L9.2265 23.9805L4.224 19.143L7.71 13.1055L14.3775 15.012L14.6895 14.7C17.3565 12.0315 20.7135 10.101 24.399 9.114L24.825 9L26.514 2.25H33.4845L35.172 9.0015L35.598 9.1155C39.2835 10.101 42.6405 12.033 45.3075 14.7015L45.6195 15.0135L52.287 13.107L55.773 19.1445L50.7705 23.982L50.8845 24.408C51.387 26.2875 51.642 28.1685 51.642 30C51.642 31.83 51.387 33.7125 50.886 35.5935L50.772 36.0195L55.7745 40.8555L52.2885 46.8945L45.621 44.9865L45.309 45.2985C42.6435 47.967 39.285 49.8975 35.5995 50.8845L35.1735 50.9985L33.486 57.75H26.514ZM30 18.054C23.412 18.054 18.054 23.4135 18.054 30C18.054 36.5865 23.4135 41.946 30 41.946C36.5865 41.946 41.946 36.5865 41.946 30C41.946 23.4135 36.588 18.054 30 18.054Z" fill="#B6DCFE"/>
<path d="M32.8995 3L34.338 8.7555L34.5525 9.612L35.406 9.84C38.964 10.7925 42.204 12.657 44.778 15.231L45.402 15.8565L46.251 15.6135L51.9315 13.989L54.8325 19.0125L50.568 23.136L49.9335 23.7495L50.1615 24.6015C50.6475 26.418 50.8935 28.2345 50.8935 30C50.8935 31.7655 50.6475 33.582 50.1615 35.3985L49.9335 36.2505L50.568 36.864L54.8325 40.9875L51.9315 46.011L46.251 44.3865L45.402 44.1435L44.778 44.769C42.2055 47.343 38.964 49.2075 35.406 50.16L34.5525 50.388L34.338 51.2445L32.901 57H27.1005L25.662 51.2445L25.4475 50.388L24.594 50.16C21.036 49.2075 17.7945 47.343 15.222 44.769L14.598 44.1435L13.749 44.3865L8.0685 46.011L5.1675 40.9875L9.432 36.864L10.0665 36.2505L9.8385 35.3985C9.3525 33.582 9.1065 31.7655 9.1065 30C9.1065 28.2345 9.3525 26.418 9.8385 24.6015L10.0665 23.7495L9.432 23.136L5.1675 19.0125L8.0685 13.989L13.749 15.6135L14.598 15.8565L15.222 15.231C17.7945 12.657 21.036 10.7925 24.594 9.84L25.4475 9.612L25.662 8.7555L27.099 3H32.8995ZM30 42.696C37.0005 42.696 42.696 37.0005 42.696 30C42.696 22.9995 37.0005 17.304 30 17.304C22.9995 17.304 17.304 22.9995 17.304 30C17.304 37.0005 22.9995 42.696 30 42.696ZM34.071 1.5H25.9275L24.204 8.391C20.3505 9.423 16.8975 11.4315 14.16 14.1705L7.3545 12.2235L3.2835 19.275L8.391 24.213C7.896 26.0625 7.6065 27.996 7.6065 30C7.6065 32.004 7.8945 33.9375 8.3895 35.7855L3.282 40.7235L7.353 47.775L14.16 45.828C16.8975 48.567 20.352 50.5755 24.2055 51.6075L25.929 58.5H34.0725L35.7945 51.609C39.648 50.577 43.1025 48.5685 45.84 45.8295L52.647 47.7765L56.718 40.725L51.6105 35.787C52.104 33.939 52.3935 32.0055 52.3935 30.0015C52.3935 27.9975 52.1055 26.064 51.6105 24.216L56.718 19.278L52.647 12.2265L45.84 14.1735C43.1025 11.4345 39.6495 9.426 35.796 8.394L34.071 1.5ZM30 41.196C23.817 41.196 18.804 36.183 18.804 30C18.804 23.817 23.817 18.804 30 18.804C36.183 18.804 41.196 23.817 41.196 30C41.196 36.183 36.183 41.196 30 41.196Z" fill="#4788C7"/>
<path d="M30 45.75C21.315 45.75 14.25 38.685 14.25 30C14.25 21.315 21.315 14.25 30 14.25C38.685 14.25 45.75 21.315 45.75 30C45.75 38.685 38.685 45.75 30 45.75ZM30 23.25C26.2785 23.25 23.25 26.2785 23.25 30C23.25 33.7215 26.2785 36.75 30 36.75C33.7215 36.75 36.75 33.7215 36.75 30C36.75 26.2785 33.7215 23.25 30 23.25Z" fill="#DFF0FE"/>
<path d="M30 15C38.271 15 45 21.729 45 30C45 38.271 38.271 45 30 45C21.729 45 15 38.271 15 30C15 21.729 21.729 15 30 15ZM30 37.5C34.1355 37.5 37.5 34.1355 37.5 30C37.5 25.8645 34.1355 22.5 30 22.5C25.8645 22.5 22.5 25.8645 22.5 30C22.5 34.1355 25.8645 37.5 30 37.5ZM30 13.5C20.8875 13.5 13.5 20.8875 13.5 30C13.5 39.1125 20.8875 46.5 30 46.5C39.1125 46.5 46.5 39.1125 46.5 30C46.5 20.8875 39.1125 13.5 30 13.5ZM30 36C26.6865 36 24 33.3135 24 30C24 26.6865 26.6865 24 30 24C33.3135 24 36 26.6865 36 30C36 33.3135 33.3135 36 30 36Z" fill="#4788C7"/>
</svg>
