<svg width="60" height="60" viewBox="0 0 60 60" fill="none" xmlns="http://www.w3.org/2000/svg">
<path d="M18 56.25L28.0005 38.25" stroke="#4788C7" stroke-miterlimit="10"/>
<path d="M18 54C17.736 54 18.264 54 18 54C16.758 54 15.75 55.008 15.75 56.25C15.75 57.492 16.758 58.5 18 58.5C18.264 58.5 17.736 58.5 18 58.5C19.242 58.5 20.25 57.492 20.25 56.25C20.25 55.008 19.242 54 18 54Z" fill="#4788C7"/>
<path d="M42 56.25L31.9995 38.25" stroke="#4788C7" stroke-miterlimit="10"/>
<path d="M42 54C42.264 54 41.736 54 42 54C43.242 54 44.25 55.008 44.25 56.25C44.25 57.492 43.242 58.5 42 58.5C41.736 58.5 42.264 58.5 42 58.5C40.758 58.5 39.75 57.492 39.75 56.25C39.75 55.008 40.758 54 42 54ZM30 51C29.172 51 28.5 50.328 28.5 49.5V3C28.5 2.172 29.172 1.5 30 1.5C30.828 1.5 31.5 2.172 31.5 3V49.5C31.5 50.328 30.828 51 30 51Z" fill="#4788C7"/>
<path d="M2.25 8.25H57.75V47.25H2.25V8.25Z" fill="#DFF0FE"/>
<path d="M57 9V46.5H3V9H57ZM58.5 7.5H1.5V48H58.5V7.5Z" fill="#4788C7"/>
<path d="M12.75 38.25L19.452 29.2499L25.452 32.2499L29.952 23.2499L35.952 27.7499L38.952 23.2499L43.452 24.7499L47.25 17.5334" stroke="#4788C7" stroke-miterlimit="10" stroke-linecap="round"/>
<path d="M0.75 3.75H59.25V8.25H0.75V3.75Z" fill="#B6DCFE"/>
<path d="M58.5 4.5V7.5H1.5V4.5H58.5ZM60 3H0V9H60V3Z" fill="#4788C7"/>
</svg>
