<?xml version="1.0"?><svg fill="#ffffff" xmlns="http://www.w3.org/2000/svg"  viewBox="0 0 24 24" width="50px" height="50px">    <path d="M 12 2 C 11.448 2 11 2.448 11 3 L 3 3 C 2.448 3 2 3.448 2 4 C 2 4.552 2.448 5 3 5 L 3 15 C 3 16.105 3.895 17 5 17 L 9.5996094 17 L 8.5097656 19.726562 C 8.2657656 20.336562 8.7150938 21 9.3710938 21 C 9.7510937 21 10.091422 20.769016 10.232422 20.416016 L 11.599609 17 L 12.400391 17 L 13.767578 20.416016 C 13.908578 20.769016 14.248906 21 14.628906 21 C 15.284906 21 15.734234 20.336562 15.490234 19.726562 L 14.400391 17 L 19 17 C 20.105 17 21 16.105 21 15 L 21 5 C 21.552 5 22 4.552 22 4 C 22 3.448 21.552 3 21 3 L 13 3 C 13 2.448 12.552 2 12 2 z M 17.292969 7.7070312 C 17.548969 7.7070312 17.805 7.805 18 8 C 18.39 8.39 18.39 9.0240625 18 9.4140625 L 14.707031 12.707031 C 14.317031 13.097031 13.682969 13.097031 13.292969 12.707031 L 11 10.414062 L 8.7070312 12.707031 C 8.3160312 13.098031 7.6829687 13.098031 7.2929688 12.707031 L 6 11.414062 C 5.61 11.024062 5.61 10.39 6 10 C 6.39 9.61 7.0240625 9.61 7.4140625 10 L 8 10.585938 L 10.292969 8.2929688 C 10.683969 7.9019687 11.317031 7.9019688 11.707031 8.2929688 L 14 10.585938 L 16.585938 8 C 16.780938 7.805 17.036969 7.7070312 17.292969 7.7070312 z"/></svg>