<svg fill="#ffffff" xmlns="http://www.w3.org/2000/svg"  viewBox="0 0 24 24" width="48px" height="48px"><path d="M 12.019531 2 C 11.577357 1.9991738 11.129656 2.0275625 10.675781 2.0859375 C 6.1037812 2.6739375 2.4539688 6.487125 2.0429688 11.078125 C 1.4629687 17.565125 7.0805312 22.914141 13.644531 21.869141 C 17.775531 21.211141 21.12275 17.907109 21.84375 13.787109 C 22.15675 11.999109 21.989125 10.282328 21.453125 8.7363281 C 21.213125 8.0443281 20.344172 7.82675 19.826172 8.34375 L 19.773438 8.3964844 C 19.511437 8.6584844 19.4425 9.0455312 19.5625 9.3945312 C 20.0275 10.739531 20.145828 12.244547 19.798828 13.810547 C 19.120828 16.863547 16.612109 19.285422 13.537109 19.857422 C 7.9061094 20.905422 3.0693438 16.048109 4.1523438 10.412109 C 4.7493437 7.3051094 7.2368906 4.7929687 10.337891 4.1679688 C 12.821146 3.6671441 15.143968 4.3275854 16.894531 5.6914062 L 15.464844 7.1210938 C 14.280104 6.2748212 12.783176 5.8399603 11.171875 6.0566406 C 8.564875 6.4066406 6.4325 8.5160938 6.0625 11.121094 C 5.4925 15.137094 8.9038281 18.531641 12.923828 17.931641 C 15.043828 17.614641 16.837516 16.097703 17.603516 14.095703 C 17.777516 13.641703 17.888266 13.196719 17.947266 12.761719 C 18.075266 11.818719 16.905422 11.2655 16.232422 11.9375 C 16.070422 12.1005 15.978266 12.318875 15.947266 12.546875 C 15.639266 14.799875 13.47125 16.458719 11.03125 15.886719 C 9.60225 15.551719 8.4443281 14.390938 8.1113281 12.960938 C 7.5013281 10.334938 9.478 8 12 8 C 12.742152 8 13.432775 8.2065691 14.025391 8.5605469 L 12.515625 10.070312 A 2 2 0 0 0 12 10 A 2 2 0 0 0 10 12 A 2 2 0 0 0 12 14 A 2 2 0 0 0 14 12 A 2 2 0 0 0 13.931641 11.482422 L 21.292969 4.1210938 C 21.683969 3.7310938 21.683969 3.0980313 21.292969 2.7070312 C 20.902969 2.3160312 20.269906 2.3160312 19.878906 2.7070312 L 18.316406 4.2695312 C 16.597378 2.8632453 14.412376 2.0044709 12.019531 2 z"/></svg>