<svg fill="#ffffff" xmlns="http://www.w3.org/2000/svg"  viewBox="0 0 48 48" width="12px" height="12px"><path d="M31.73,21.93l-4.9,4.9C26.07,27.58,25.07,28,24,28s-2.07-0.42-2.83-1.17c-1.56-1.56-1.56-4.1,0-5.66l4.9-4.9 C25.41,16.1,24.72,16,24,16c-4.41,0-8,3.59-8,8c0,4.41,3.59,8,8,8s8-3.59,8-8C32,23.28,31.9,22.59,31.73,21.93z"/><line x1="24" x2="41" y1="24" y2="7" fill="none" stroke="#ffffff" stroke-linecap="round" stroke-miterlimit="10" stroke-width="4"/><path d="M40.68,12.98l-2.9,2.9C39.19,18.26,40,21.04,40,24c0,8.82-7.18,16-16,16S8,32.82,8,24S15.18,8,24,8 c2.96,0,5.74,0.81,8.12,2.22l2.9-2.9C31.86,5.22,28.07,4,24,4C12.97,4,4,12.97,4,24c0,11.03,8.97,20,20,20s20-8.97,20-20 C44,19.93,42.78,16.14,40.68,12.98z"/><path d="M36.32,17.34l-3.01,3.01C33.76,21.48,34,22.71,34,24c0,5.51-4.49,10-10,10s-10-4.49-10-10s4.49-10,10-10 c1.29,0,2.52,0.24,3.65,0.69l3.01-3.01C28.68,10.61,26.41,10,24,10c-7.72,0-14,6.28-14,14c0,7.72,6.28,14,14,14s14-6.28,14-14 C38,21.59,37.39,19.32,36.32,17.34z"/></svg>